<svg width="16" height="19" viewBox="0 0 16 19" fill="none" xmlns="http://www.w3.org/2000/svg">
<g id="Group">
<path id="Vector" d="M14.208 12.8765C13.1709 11.9895 12.1184 11.4521 11.094 12.3378L10.4824 12.8731C10.0348 13.2617 9.20274 15.0773 5.98562 11.3764C2.76917 7.68031 4.68323 7.10481 5.13143 6.71959L5.74645 6.18363C6.76545 5.29594 6.38089 4.17845 5.64595 3.02814L5.20244 2.33139C4.46415 1.18375 3.66021 0.430056 2.63853 1.31641L2.08648 1.79877C1.63494 2.12772 0.372741 3.19697 0.0665717 5.22827C-0.301903 7.66557 0.860468 10.4566 3.52354 13.519C6.18326 16.5827 8.78737 18.1215 11.2541 18.0947C13.3042 18.0726 14.5423 16.9726 14.9295 16.5726L15.4836 16.0896C16.5026 15.2039 15.8695 14.3021 14.8317 13.4131L14.208 12.8765Z" fill="#2F4CDD"/>
</g>
</svg>
